<?xml version="1.0" standalone="no"?>
<!DOCTYPE svg PUBLIC "-//W3C//DTD SVG 20010904//EN"
 "http://www.w3.org/TR/2001/REC-SVG-20010904/DTD/svg10.dtd">
<svg version="1.0" xmlns="http://www.w3.org/2000/svg"
 width="1200.000000pt" height="1200.000000pt" viewBox="0 0 1200.000000 1200.000000"
 preserveAspectRatio="xMidYMid meet">
<metadata>
Created by potrace 1.11, written by Peter Selinger 2001-2013
</metadata>
<g transform="translate(0.000000,1200.000000) scale(0.100000,-0.100000)"
fill="#000000" stroke="none">
<path d="M5645 11989 c-2341 -139 -4389 -1632 -5241 -3821 -619 -1592 -520
-3416 268 -4928 794 -1523 2194 -2635 3844 -3053 1755 -445 3607 -82 5054 991
556 412 1041 922 1427 1502 1013 1521 1275 3426 711 5169 -326 1007 -912 1908
-1708 2622 -1184 1063 -2761 1613 -4355 1518z m825 -2414 c915 -110 1666 -543
2125 -1225 226 -336 367 -705 430 -1129 8 -53 15 -99 15 -103 0 -5 -276 -8
-614 -8 l-613 0 -13 63 c-36 185 -140 428 -262 613 -101 154 -301 353 -458
457 -474 313 -1098 391 -1653 207 -251 -84 -453 -208 -650 -399 -490 -475
-740 -1273 -696 -2227 31 -690 209 -1244 534 -1659 163 -208 386 -388 620
-500 569 -271 1380 -217 1895 128 326 218 557 544 664 937 l23 85 612 3 612 2
-7 -37 c-76 -442 -217 -810 -428 -1127 -109 -163 -187 -258 -321 -391 -461
-458 -1067 -723 -1845 -807 -172 -19 -663 -16 -835 5 -206 24 -410 64 -585
114 -1199 340 -1975 1312 -2169 2713 -38 275 -46 391 -46 730 0 339 8 457 46
728 116 831 444 1528 947 2013 508 490 1144 761 1947 829 147 13 568 4 725
-15z"/>
</g>
</svg>
