<?xml version="1.0" encoding="UTF-8"?>
<svg width="384px" height="146px" viewBox="0 0 384 146" version="1.1" xmlns="http://www.w3.org/2000/svg" xmlns:xlink="http://www.w3.org/1999/xlink">
    <!-- Generator: Sketch 48.2 (47327) - http://www.bohemiancoding.com/sketch -->
    <title>logo-dark</title>
    <desc>Created with Sketch.</desc>
    <defs></defs>
    <g id="Page-1" stroke="none" stroke-width="1" fill="none" fill-rule="evenodd">
        <g id="logo-dark">
            <circle id="Oval" fill="#0077CC" cx="73" cy="73" r="73"></circle>
            <path d="M170.033281,44.8564437 C165.576862,44.8564437 162,41.274062 162,36.9282219 C162,32.5236542 165.576862,29 170.033281,29 C174.489699,29 178.007924,32.5236542 178.007924,36.9282219 C178.007924,41.274062 174.489699,44.8564437 170.033281,44.8564437 Z M162.762282,116.504078 L162.762282,54.2528548 L177.362916,54.2528548 L177.362916,116.504078 L162.762282,116.504078 Z M193.664025,39.6884176 L208.264659,39.6884176 L208.264659,54.2528548 L219.992076,54.2528548 L219.992076,65.5285481 L208.264659,65.5285481 L208.264659,97.8874388 C208.264659,102.996737 210.610143,105.34584 215.770206,105.34584 C217.118859,105.34584 218.995246,105.228385 219.933439,105.052202 L219.933439,116.21044 C218.350238,116.562806 215.477021,116.797716 212.369255,116.797716 C198.941363,116.797716 193.664025,112.040783 193.664025,99.9429038 L193.664025,65.5285481 L184.751189,65.5285481 L184.751189,54.2528548 L193.664025,54.2528548 L193.664025,39.6884176 Z M237.524564,44.8564437 C233.068146,44.8564437 229.491284,41.274062 229.491284,36.9282219 C229.491284,32.5236542 233.068146,29 237.524564,29 C241.980983,29 245.499208,32.5236542 245.499208,36.9282219 C245.499208,41.274062 241.980983,44.8564437 237.524564,44.8564437 Z M230.253566,116.504078 L230.253566,54.2528548 L244.8542,54.2528548 L244.8542,116.504078 L230.253566,116.504078 Z M291.236133,53.1957586 C307.009509,53.1957586 317.03645,65.4698206 317.03645,85.3784666 C317.03645,105.228385 307.068146,117.502447 291.470681,117.502447 C282.440571,117.502447 275.40412,113.156607 272.00317,106.168026 L271.709984,106.168026 L271.709984,137 L257.10935,137 L257.10935,54.2528548 L271.358162,54.2528548 L271.358162,65 L271.651347,65 C275.169572,57.776509 282.206022,53.1957586 291.236133,53.1957586 Z M286.779715,105.522023 C296.220285,105.522023 302.083994,97.7112561 302.083994,85.3784666 C302.083994,73.1044046 296.220285,65.2349103 286.779715,65.2349103 C277.690967,65.2349103 271.651347,73.2805873 271.59271,85.3784666 C271.651347,97.593801 277.690967,105.522023 286.779715,105.522023 Z M353.919176,117.737357 C335.683043,117.737357 323.838352,105.58075 323.838352,85.3784666 C323.838352,65.2936378 335.800317,52.9608483 353.919176,52.9608483 C372.038035,52.9608483 384,65.2349103 384,85.3784666 C384,105.58075 372.155309,117.737357 353.919176,117.737357 Z M353.919176,106.168026 C363.183835,106.168026 369.164818,98.6508972 369.164818,85.3784666 C369.164818,72.1647635 363.183835,64.588907 353.919176,64.588907 C344.713154,64.588907 338.673534,72.1647635 338.673534,85.3784666 C338.673534,98.6508972 344.654517,106.168026 353.919176,106.168026 Z" id="itipo" fill="#3C4257"></path>
            <path d="M73.4400619,116 C49.2235112,116 34,99.4869215 34,72.4708249 C34,45.6297787 49.3410673,29 73.4400619,29 C93.1307038,29 108.119103,41.195171 110,59.2837022 L95.070379,59.2837022 C93.0719258,48.722334 84.4315545,41.778672 73.4400619,41.778672 C58.863109,41.778672 49.5174014,53.6820926 49.5174014,72.4708249 C49.5174014,91.3762575 58.804331,103.221328 73.4988399,103.221328 C84.7254447,103.221328 92.7780356,97.2112676 95.129157,87.0583501 L110,87.0583501 C107.354988,105.088531 93.483372,116 73.4400619,116 Z" id="C" fill="#FFFFFF"></path>
        </g>
    </g>
</svg>