<?xml version="1.0" encoding="UTF-8" standalone="no"?>
<svg xmlns="http://www.w3.org/2000/svg" viewBox="0 0 546.134 384" width="60" height="42">
    <path d="M164.05 80.237h254.915v219.12H164.05z" fill="#fff"/>
    <path d="M534.722 60.083c-6.281-23.65-24.787-42.276-48.284-48.597C443.848 0 273.067 0 273.067 0S102.287 0 59.696 11.486c-23.497 6.322-42.003 24.947-48.284 48.597C0 102.95 0 192.388 0 192.388s0 89.438 11.412 132.305c6.281 23.65 24.787 41.5 48.284 47.821C102.287 384 273.067 384 273.067 384s170.78 0 213.371-11.486c23.497-6.321 42.003-24.171 48.284-47.821 11.412-42.867 11.412-132.305 11.412-132.305s0-89.438-11.412-132.305zm-317.51 213.508V111.185l142.739 81.205z" fill="#464646"/>
</svg>
